<svg xmlns="http://www.w3.org/2000/svg" width="400" height="100" viewBox="0 0 400 100">
  <rect width="400" height="100" fill="#1E293B"/>

  <!-- Mark -->
  <rect x="8" y="8" width="84" height="84" rx="20" fill="#334155"/>
  <path d="M 40 8
  C 22 8 8 22 8 40
  C 8 58 22 72 40 72
  C 52 72 62 65 67 54
  L 67 40 L 40 40 L 40 47 L 59 47
  C 55 55 48 64 40 64
  C 26 64 16 53 16 40
  C 16 27 26 16 40 16
  L 59 16" fill="none" stroke="white" stroke-width="6"
        stroke-linecap="round" stroke-linejoin="round"
        transform="translate(10,10)"/>
  <rect x="8"  y="95" width="28" height="5" fill="#CE1126"/>
  <rect x="36" y="95" width="28" height="5" fill="#FCD116"/>
  <rect x="64" y="95" width="28" height="5" fill="#009A44"/>

  <!-- Wordmark -->
  <text x="108" y="56"
        font-family="Inter, -apple-system, Arial, sans-serif"
        font-size="44" font-weight="700" fill="white"
        letter-spacing="-2">GCAP</text>
  <text x="272" y="56"
        font-family="Inter, -apple-system, Arial, sans-serif"
        font-size="44" font-weight="300" fill="#475569"
        letter-spacing="-1">-GN</text>

  <rect x="108" y="64" width="240" height="1.5" fill="#334155"/>

  <text x="108" y="80"
        font-family="Inter, -apple-system, Arial, sans-serif"
        font-size="11" font-weight="400" fill="#64748B"
        letter-spacing="0.2">Gestion Comptable Administrative Publique — Guinée</text>
</svg>
