<svg xmlns="http://www.w3.org/2000/svg" width="100" height="100" viewBox="0 0 100 100">
  <circle cx="50" cy="50" r="50" fill="#1E293B"/>
  <path d="M 40 8
  C 22 8 8 22 8 40
  C 8 58 22 72 40 72
  C 52 72 62 65 67 54
  L 67 40 L 40 40 L 40 47 L 59 47
  C 55 55 48 64 40 64
  C 26 64 16 53 16 40
  C 16 27 26 16 40 16
  L 59 16" fill="none" stroke="white" stroke-width="6"
        stroke-linecap="round" stroke-linejoin="round"
        transform="translate(10,10)"/>
  <clipPath id="c"><circle cx="50" cy="50" r="50"/></clipPath>
  <rect x="2"  y="93" width="31" height="7" fill="#CE1126" clip-path="url(#c)"/>
  <rect x="33" y="93" width="34" height="7" fill="#FCD116" clip-path="url(#c)"/>
  <rect x="67" y="93" width="31" height="7" fill="#009A44" clip-path="url(#c)"/>
</svg>
